<?xml version="1.0" encoding="UTF-8" standalone="no"?>
<svg xmlns:svg="http://www.w3.org/2000/svg" xmlns="http://www.w3.org/2000/svg" xmlns:xlink="http://www.w3.org/1999/xlink" version="1.0" width="460" height="460" viewBox="20 20 460 460">
	<title>Alquerque Board at Starting Position</title>
	<defs>
		<linearGradient id="BlackLinearGradient">
			<stop style="stop-color:#cccccc;stop-opacity:1" offset="0"/>
			<stop style="stop-color:#000000;stop-opacity:1" offset="1"/>
		</linearGradient>
		<linearGradient id="WhiteLinearGradient">
			<stop style="stop-color:#ffffff;stop-opacity:1" offset="0"/>
			<stop style="stop-color:#e6e6e6;stop-opacity:1" offset="0.75"/>
			<stop style="stop-color:#cccccc;stop-opacity:1" offset="1"/>
		</linearGradient>
		<radialGradient id="BlackRadialGradient" xlink:href="#BlackLinearGradient" cx="0" cy="0" r="24" fx="-12" fy="-12" gradientUnits="userSpaceOnUse"/>
		<radialGradient id="WhiteRadialGradient" xlink:href="#WhiteLinearGradient" cx="0" cy="0" r="24" fx="-12" fy="-12" gradientUnits="userSpaceOnUse"/>
		<filter id="StoneDropShadow" x="-0.25" y="-0.25" width="1.5" height="1.5" color-interpolation-filters="sRGB">
			<feGaussianBlur result="blur" stdDeviation="2" in="SourceAlpha"/>
			<feColorMatrix values="1 0 0 0 0 0 1 0 0 0 0 0 1 0 0 0 0 0 0.5 0 " type="matrix" result="bluralpha"/>
			<feOffset result="offsetBlur" dy="2" dx="2" in="bluralpha"/>
			<feMerge><feMergeNode in="offsetBlur"/><feMergeNode in="SourceGraphic"/></feMerge>
		</filter>
		<circle id="Whitestone" cx="0" cy="0" r="24" style="fill:url(#WhiteRadialGradient);stroke:none;filter:url(#StoneDropShadow)"/>
		<circle id="Blackstone" cx="0" cy="0" r="24" style="fill:url(#BlackRadialGradient);stroke:none;filter:url(#StoneDropShadow)"/>
	</defs>
	<g style="fill:none;stroke:#808080;stroke-width:5;stroke-linecap:square;stroke-linejoin:miter">
		<path d="M 450,50 50,450 M 50,50 450,450 M 250,50 50,250 250,450 450,250 z"/>
		<path id="GridHorz" d="M 50,50 h 400 m -400,100 h 400 m -400,100 h 400 m -400,100 h 400 m -400,100 h 400"/>
		<use xlink:href="#GridHorz" transform="matrix(0,-1,1,0,0,500)"/>
		<circle cx="250" cy="250" r="8" style="fill:#808080"/>
	</g>
	<use xlink:href="#Blackstone" transform="translate(50,50)"/>
	<use xlink:href="#Blackstone" transform="translate(150,50)"/>
	<use xlink:href="#Blackstone" transform="translate(250,50)"/>
	<use xlink:href="#Blackstone" transform="translate(350,50)"/>
	<use xlink:href="#Blackstone" transform="translate(450,50)"/>
	<use xlink:href="#Blackstone" transform="translate(50,150)"/>
	<use xlink:href="#Blackstone" transform="translate(150,150)"/>
	<use xlink:href="#Blackstone" transform="translate(250,150)"/>
	<use xlink:href="#Blackstone" transform="translate(350,150)"/>
	<use xlink:href="#Blackstone" transform="translate(450,150)"/>
	<use xlink:href="#Blackstone" transform="translate(50,250)"/>
	<use xlink:href="#Blackstone" transform="translate(150,250)"/>

	<use xlink:href="#Whitestone" transform="translate(350,250)"/>
	<use xlink:href="#Whitestone" transform="translate(450,250)"/>
	<use xlink:href="#Whitestone" transform="translate(50,350)"/>
	<use xlink:href="#Whitestone" transform="translate(150,350)"/>
	<use xlink:href="#Whitestone" transform="translate(250,350)"/>
	<use xlink:href="#Whitestone" transform="translate(350,350)"/>
	<use xlink:href="#Whitestone" transform="translate(450,350)"/>
	<use xlink:href="#Whitestone" transform="translate(50,450)"/>
	<use xlink:href="#Whitestone" transform="translate(150,450)"/>
	<use xlink:href="#Whitestone" transform="translate(250,450)"/>
	<use xlink:href="#Whitestone" transform="translate(350,450)"/>
	<use xlink:href="#Whitestone" transform="translate(450,450)"/>
</svg>
